<svg xmlns="http://www.w3.org/2000/svg" viewBox="0 0 496.11 415.05"><defs><style>.cls-1{fill:#61d612;}</style></defs><title>Logo-Green</title><g id="Layer_2" data-name="Layer 2"><g id="Layer_1-2" data-name="Layer 1"><g id="Layer_2-2" data-name="Layer 2"><g id="Layer_1-2-2" data-name="Layer 1-2"><path class="cls-1" d="M415.12,415.05c.26-2.26-1.66-3.14-2.9-4.34a210,210,0,0,1-20.38-23.42c-2.79-3.68-2.86-6.77.13-10.75,11.81-15.75,23.29-31.75,34.78-47.73,12.43-17.29,24.32-35,37.29-51.87,6.6-8.58,11.43-11.5,22.18-6.86,3.26,1.41,6.59,2.65,9.89,4v4a62.23,62.23,0,0,1-4.82,11.4c-16.23,33-33,65.63-51.71,97.28a220.68,220.68,0,0,1-14.46,22.07,20.09,20.09,0,0,1-7,6.22Z"/><path class="cls-1" d="M90.87,261.51c-3.8,2.65-8.43,3.59-11.75,7A12.63,12.63,0,0,0,75,277.59c-.49,14.27,7.54,22.69,19,29,8.17,4.45,16.79,6.39,26.24,6.76,20.69.82,41.39,1.25,62.06,2.09,11.44.46,22.88.15,34.29.74,8.26.43,16.5,1.37,24.79,1,1.19-.06,2.64.59,3.51-.76,0-1-.68-1.19-1.32-1.16-10.29.47-20.48-1.47-30.79-1.12-17.93.61-35.85-.86-53.77-1.2-14.84-.28-29.76-.57-44.57-1.86a46.52,46.52,0,0,1-32.64-17,22.82,22.82,0,0,1-4.59-18.59c.88-4.92,5.18-7.41,9.36-9.39,14.64-6.9,30.27-10.6,46.21-8.67a356.91,356.91,0,0,0,58.35,2.53c20.21-.86,40-3.82,58.88-12.58,19.52-9.08,39.14-18.2,60.55-22.47a195.45,195.45,0,0,1,56-2.93A123,123,0,0,1,406,232c11.51,5.11,21.73,12.34,32,19.53,6.44,4.53,12.76,9.24,18.24,15,2,2.06,1.8,3.55.43,5.44q-29.47,40.52-59,81c-2.67,3.68-5.1,7.54-7.64,11.31-1.52,2.27-3.1,3.15-6.2,2.21-12-3.62-23.91-7.25-36.28-9.27-6.77-1.11-13,1.53-19.16,3.25-33.27,9.21-66.42,18.84-99.65,28.2A151.12,151.12,0,0,1,203,393.9c-6.41.64-12.91-.43-18.33-4.13-14.92-10.2-29.76-20.53-44.37-31.16-16.49-12-32.73-24.32-49-36.58C78.69,312.53,67.05,302.15,57,289.7c-17.23-21.37-34.16-43-50-65.36-1.59-2.25-2.7-4.83-4.28-7.08s-3.85-4.47-2.1-7a11.56,11.56,0,0,1,8.93-5.37c13.56-1.19,24.28,5.16,33.81,13.16Q64,235.53,83.24,254.56C85.66,257,88.75,258.71,90.87,261.51Z"/><path class="cls-1" d="M225.32,207.05c13.18,0,25.67-.13,38.16.09,3.36.06,3.72-1.26,3.7-4.06-.1-19,.44-38-.27-57-.33-8.77,5.71-13.05,13.59-13,18.33,0,36.66-.09,55,.09,3.59,0,4.87-.65,4.75-4.56-.31-10.15-.25-20.33,0-30.49.07-3.33-1-4.13-4.17-4.11-18.83.15-37.66.19-56.48,0C272.68,94,266.49,90,267,81.58c.72-12.12.17-24.32.19-36.48,0-4.8,5.12-9.86,9.58-9.55s9.4,4.73,9.35,9c-.09,8.29.57,16.53.94,24.79.14,3.2,1.09,3.8,4,3.78,18.66-.12,37.32-.07,56-.06,9.53,0,12.12,2.61,12.12,12.16q0,29.74,0,59.49c0,6.46-2.84,9.34-9.22,9.35-19.5,0-39,.1-58.48-.08-3.54,0-4.17,1-4.42,4.41-1.45,20.09-.64,40.19-.89,60.28-.07,5.32-3.21,8.37-8.67,8.38-20.16,0-40.33-.24-60.48.14-7.57.14-11.87-4-11.85-12,0-18.5-.12-37,.11-55.49.05-4.33-.76-5.89-5.55-5.8-18.49.32-37,.19-55.48.11-9.86,0-11.63-2.38-11.9-11.9-.55-19-.5-38,0-57,.24-9.65,2.23-12.08,12.25-12.09,18.66,0,37.33-.11,56,.08,3.63,0,4.77-.73,4.73-4.59-.22-18.83-.14-37.66-.08-56.48,0-4.5.7-8.64,5.42-11.12a10.18,10.18,0,0,1,5.22-.86q30-.07,60,0c7.42,0,10.32,2.59,10.35,9.22,0,7-3.61,10.73-10.7,10.76-13.83.06-27.66,0-41.49,0h-7.71c-.77,16.29,1,32.41-1,48.51-.61,4.88-.35,9.84-1,14.79C223.5,90.2,220.12,94,213.11,94c-18.66,0-37.32.1-56-.06-3.64,0-5.21.54-5.06,4.75.36,10,.27,20,0,30-.08,3.48.82,4.46,4.37,4.42q28-.28,56,0c8.56.09,13.83,4.55,13.77,13.79-.13,18.16,0,36.32,0,54.48C226.12,203.16,226.38,205,225.32,207.05Z"/><path class="cls-1" d="M105.21,257c-1,1.49-2.18.69-2.95,1.14-7.49,4.36-12.36.13-17.46-4.79C70.67,239.71,56.59,226,41.18,213.81c-8.64-6.82-18.39-12-30.15-10.76-3.07.32-4.88.12-5.24-4.15s-2-9,1.39-12c3.62-3.28,8.66-2.15,13.19-1.09,9.46,2.21,17.13,7.07,24.17,13.93,11.38,11.07,22.89,22,34.7,32.65,7.74,7,14.3,15.17,22.84,21.25A21.35,21.35,0,0,1,105.21,257Z"/><path class="cls-1" d="M120.55,253.6c-3.92,3.63-7.86,2.53-11.18,2.91-2.23.25-5.1-3-7.32-5.11-9.4-8.89-18.51-18.09-28-26.86-11.65-10.74-22.71-22.12-35-32.15-.73-.6-1.64-1.5-1.69-2.3-.09-1.44,1.45-.84,2.27-1.17a13.08,13.08,0,0,1,11.38.52,56.88,56.88,0,0,1,14.3,10.21q25.5,25.73,51.23,51.23A24.89,24.89,0,0,0,120.55,253.6Z"/><path class="cls-1" d="M131,254.67c-5.22,1.34-8.35-.75-11.87-3.88A411.74,411.74,0,0,1,88.84,221c-7.6-8.3-16-15.85-23.77-24.72,7.13-.5,11.22,4,15.36,7.77,8.83,8,17,16.79,26,24.63a203.62,203.62,0,0,1,20.51,20.72C128.27,251,129.46,252.68,131,254.67Z"/></g></g></g></g></svg>